<svg width="32" height="32" viewBox="0 0 32 32" fill="none" xmlns="http://www.w3.org/2000/svg">
<circle cx="16" cy="16" r="16" fill="black"/>
<path d="M12.6244 10.0078C13.1045 9.88398 13.7721 9.84115 14.4072 10.2224C15.0677 10.6187 15.3599 11.2708 15.4679 11.809C15.5478 12.2071 15.5459 12.6153 15.5041 13.0012C15.8833 12.6052 16.2324 12.2729 16.5499 12.0055C16.8951 11.7148 17.2676 11.4451 17.6485 11.2683C17.9336 11.136 18.7063 10.8254 19.498 11.2709C20.4023 11.7799 20.4791 12.7493 20.4734 13.1262C20.4666 13.5769 20.3509 14.032 20.2212 14.4244C19.9908 15.121 19.5954 15.9707 19.0606 16.9353C19.2824 16.7044 19.516 16.4505 19.7609 16.1722C20.3515 15.5011 21.3531 15.4549 21.9983 16.069C22.6434 16.683 22.6876 17.7248 22.0971 18.3959C21.0035 19.6386 20.0031 20.5717 19.1329 21.1796C18.6993 21.4825 18.2534 21.7363 17.8091 21.8956C17.3913 22.0454 16.8032 22.1736 16.1865 21.9876C15.4594 21.7684 14.9774 21.2015 14.7736 20.545C14.5979 19.9789 14.6401 19.4052 14.7245 18.9505C14.739 18.8725 14.7558 18.7933 14.7746 18.7129C14.4243 19.1014 14.112 19.4389 13.8379 19.7228C13.5216 20.0506 13.2283 20.3364 12.9698 20.5541C12.8412 20.6624 12.6938 20.7772 12.5361 20.876C12.4079 20.9564 12.1356 21.1159 11.7803 21.1721C11.3466 21.2408 10.6118 21.1542 10.1407 20.4462C9.80096 19.9356 9.82872 19.4038 9.83997 19.2414C9.86809 18.8354 10.0097 18.4185 10.1197 18.122C10.37 17.4476 10.8177 16.4825 11.4133 15.2717C11.5664 14.9605 11.698 14.6721 11.8105 14.4068C11.4672 14.742 11.0812 15.1518 10.6537 15.6456C10.0683 16.3216 9.06692 16.3762 8.41708 15.7675C7.76725 15.1588 7.71498 14.1174 8.30031 13.4414C9.39091 12.1819 10.3801 11.2473 11.2436 10.668C11.6725 10.3802 12.1395 10.1328 12.6244 10.0078Z" fill="white"/>
<path d="M24.8553 13.9133C25.1553 14.6955 24.7888 15.5828 24.0366 15.895C23.2844 16.2073 22.4314 15.8262 22.1314 15.044C21.8313 14.2617 22.1978 13.3745 22.95 13.0623C23.7022 12.75 24.5552 13.131 24.8553 13.9133Z" fill="white"/>
</svg>
