<svg width="84" height="60" viewBox="0 0 84 60" fill="none" xmlns="http://www.w3.org/2000/svg">
<g clip-path="url(#clip0_129_258)">
<path d="M23.2856 0.433254C25.6487 -0.177669 28.9343 -0.388982 32.0606 1.49196C35.3112 3.4478 36.7494 6.66521 37.281 9.32068C37.6741 11.2851 37.6647 13.2992 37.4594 15.2033C39.3254 13.2495 41.0438 11.6099 42.6066 10.2904C44.3054 8.85601 46.1389 7.52506 48.0139 6.65271C49.4168 5.99998 53.2203 4.46742 57.1167 6.66585C61.5674 9.17709 61.9456 13.9606 61.9175 15.8202C61.8839 18.0442 61.3145 20.2898 60.676 22.2255C59.5422 25.6628 57.5961 29.8555 54.9637 34.6152C56.0554 33.4757 57.2055 32.2227 58.4106 30.8498C61.3173 27.5385 66.2475 27.3105 69.4226 30.3404C72.5978 33.3703 72.8156 38.5108 69.9091 41.8221C64.5268 47.9538 59.603 52.5576 55.3195 55.5574C53.1857 57.0518 50.9908 58.3042 48.8042 59.0902C46.7479 59.8294 43.8533 60.4618 40.8178 59.5443C37.2393 58.4626 34.8669 55.6655 33.864 52.4263C32.9991 49.6328 33.2066 46.8019 33.6223 44.5585C33.6936 44.1737 33.7762 43.7829 33.8685 43.3863C32.1447 45.303 30.6075 46.9682 29.2586 48.3693C27.7015 49.9866 26.2581 51.397 24.9855 52.4712C24.3527 53.0054 23.6272 53.5718 22.8512 54.0594C22.2202 54.4559 20.8797 55.2431 19.1309 55.5205C16.9963 55.8591 13.3801 55.4322 11.0611 51.9385C9.38905 49.4193 9.52571 46.7954 9.58106 45.9939C9.71945 43.9905 10.4166 41.9332 10.958 40.4707C12.1897 37.143 14.3932 32.3811 17.3248 26.4067C18.0784 24.8709 18.7263 23.4477 19.2795 22.1388C17.5903 23.7929 15.6903 25.8148 13.5859 28.2512C10.7049 31.5867 5.77623 31.8561 2.57777 28.8529C-0.620618 25.8497 -0.87787 20.711 2.00303 17.3755C7.37085 11.1608 12.2395 6.54944 16.4895 3.69079C18.6007 2.27074 20.899 1.05029 23.2856 0.433254Z" fill="#0099FF"/>
<path d="M83.4844 19.7038C84.9612 23.5636 83.1572 27.9415 79.4551 29.4821C75.7529 31.0228 71.5546 29.1427 70.0777 25.2829C68.6009 21.4232 70.4049 17.0453 74.1071 15.5046C77.8092 13.964 82.0076 15.844 83.4844 19.7038Z" fill="#0099FF"/>
</g>
<defs>
<clipPath id="clip0_129_258">
<rect width="84" height="60" fill="white"/>
</clipPath>
</defs>
</svg>
