<svg width="20" height="20" viewBox="0 0 20 20" fill="none" xmlns="http://www.w3.org/2000/svg">
<g clip-path="url(#clip0_130_311)">
<circle cx="10" cy="10" r="10" fill="white"/>
<path d="M7.89025 6.25488C8.19032 6.17749 8.60755 6.15073 9.00453 6.38898C9.41732 6.63672 9.59994 7.04426 9.66744 7.38062C9.71737 7.62944 9.71617 7.88456 9.6901 8.12574C9.92706 7.87827 10.1453 7.67059 10.3437 7.50345C10.5594 7.32176 10.7923 7.15317 11.0304 7.04267C11.2085 6.95999 11.6915 6.76587 12.1863 7.04434C12.7514 7.36243 12.7995 7.96834 12.7959 8.20389C12.7916 8.4856 12.7193 8.77003 12.6382 9.01523C12.4943 9.45061 12.2471 9.9817 11.9129 10.5846C12.0515 10.4403 12.1975 10.2815 12.3506 10.1076C12.7197 9.68821 13.3457 9.65932 13.7489 10.0431C14.1521 10.4269 14.1798 11.078 13.8107 11.4975C13.1272 12.2741 12.502 12.8573 11.958 13.2373C11.6871 13.4266 11.4084 13.5852 11.1307 13.6848C10.8696 13.7784 10.502 13.8585 10.1166 13.7423C9.66215 13.6053 9.36089 13.251 9.23353 12.8407C9.12371 12.4868 9.15007 12.1282 9.20284 11.8441C9.2119 11.7953 9.22239 11.7458 9.23411 11.6956C9.01521 11.9384 8.82001 12.1493 8.64873 12.3268C8.451 12.5316 8.26771 12.7103 8.10612 12.8463C8.02575 12.914 7.93363 12.9858 7.83509 13.0475C7.75496 13.0977 7.58474 13.1975 7.36267 13.2326C7.09161 13.2755 6.6324 13.2214 6.33794 12.7789C6.12561 12.4598 6.14296 12.1274 6.14999 12.0259C6.16757 11.7721 6.25609 11.5115 6.32484 11.3263C6.48125 10.9048 6.76105 10.3016 7.13332 9.54484C7.22902 9.35031 7.31129 9.17004 7.38154 9.00424C7.16703 9.21376 6.92576 9.46988 6.65854 9.77848C6.2927 10.201 5.66684 10.2351 5.26069 9.85469C4.85454 9.47429 4.82187 8.82339 5.1877 8.40089C5.86933 7.6137 6.48757 7.02959 7.02725 6.6675C7.29534 6.48762 7.5872 6.33303 7.89025 6.25488Z" fill="black"/>
<path d="M15.5345 8.69581C15.7221 9.18472 15.493 9.73925 15.0229 9.9344C14.5528 10.1295 14.0196 9.89141 13.8321 9.4025C13.6446 8.9136 13.8737 8.35906 14.3438 8.16392C14.8139 7.96877 15.347 8.20691 15.5345 8.69581Z" fill="black"/>
</g>
<defs>
<clipPath id="clip0_130_311">
<rect width="20" height="20" fill="white"/>
</clipPath>
</defs>
</svg>
