<svg width="20" height="20" viewBox="0 0 20 20" fill="none" xmlns="http://www.w3.org/2000/svg">
<g clip-path="url(#clip0_130_306)">
<circle cx="10" cy="10" r="10" fill="black"/>
<path d="M7.89022 6.25488C8.19029 6.17749 8.60752 6.15073 9.0045 6.38898C9.41729 6.63672 9.59991 7.04426 9.66741 7.38062C9.71734 7.62944 9.71614 7.88456 9.69007 8.12574C9.92703 7.87827 10.1452 7.67059 10.3437 7.50345C10.5594 7.32176 10.7922 7.15317 11.0303 7.04267C11.2085 6.95999 11.6914 6.76587 12.1862 7.04434C12.7514 7.36243 12.7994 7.96834 12.7959 8.20389C12.7916 8.4856 12.7193 8.77003 12.6382 9.01523C12.4942 9.45061 12.2471 9.9817 11.9128 10.5846C12.0515 10.4403 12.1975 10.2815 12.3505 10.1076C12.7196 9.68821 13.3457 9.65932 13.7489 10.0431C14.1521 10.4269 14.1797 11.078 13.8107 11.4975C13.1272 12.2741 12.5019 12.8573 11.958 13.2373C11.6871 13.4266 11.4083 13.5852 11.1307 13.6848C10.8696 13.7784 10.502 13.8585 10.1165 13.7423C9.66212 13.6053 9.36086 13.251 9.2335 12.8407C9.12368 12.4868 9.15004 12.1282 9.20281 11.8441C9.21187 11.7953 9.22236 11.7458 9.23408 11.6956C9.01518 11.9384 8.81998 12.1493 8.6487 12.3268C8.45097 12.5316 8.26768 12.7103 8.10609 12.8463C8.02572 12.914 7.9336 12.9858 7.83506 13.0475C7.75493 13.0977 7.58471 13.1975 7.36264 13.2326C7.09158 13.2755 6.63237 13.2214 6.33791 12.7789C6.12558 12.4598 6.14293 12.1274 6.14996 12.0259C6.16753 11.7721 6.25606 11.5115 6.32481 11.3263C6.48122 10.9048 6.76102 10.3016 7.13329 9.54484C7.22899 9.35031 7.31126 9.17004 7.38151 9.00424C7.167 9.21376 6.92573 9.46988 6.65851 9.77848C6.29267 10.201 5.66681 10.2351 5.26066 9.85469C4.85451 9.47429 4.82184 8.82339 5.18767 8.40089C5.8693 7.6137 6.48754 7.02959 7.02722 6.6675C7.29531 6.48762 7.58717 6.33303 7.89022 6.25488Z" fill="white"/>
<path d="M15.5345 8.69581C15.722 9.18472 15.493 9.73925 15.0229 9.9344C14.5527 10.1295 14.0196 9.89141 13.8321 9.4025C13.6445 8.9136 13.8736 8.35906 14.3437 8.16392C14.8139 7.96877 15.347 8.20691 15.5345 8.69581Z" fill="white"/>
</g>
<defs>
<clipPath id="clip0_130_306">
<rect width="20" height="20" fill="white"/>
</clipPath>
</defs>
</svg>
